<?xml version="1.0" encoding="utf-8"?>
<!DOCTYPE svg PUBLIC "-//W3C//DTD SVG 1.1//EN" "http://www.w3.org/Graphics/SVG/1.1/DTD/svg11.dtd">
<svg version="1.1" id="Layer_1" xmlns="http://www.w3.org/2000/svg" xmlns:xlink="http://www.w3.org/1999/xlink" x="0px" y="0px"
	 width="55px" height="55px" viewBox="0 0 55 55" style="enable-background:new 0 0 55 55;" xml:space="preserve">
<g>
	<path d="M45,16.929v21.857C45,39.67,45,42,45,42s-2.33,0-3.214,0H12.214C11.33,42,9,42,9,42s0-2.33,0-3.214V16.929
		C9,16.045,9,14,9,14s2.33,0,3.214,0h29.572C42.67,14,45,14,45,14S45,16.045,45,16.929z M42,38.786V22.071V21h-0.214H12.214H12
		v1.071v16.715c0,0.174-0.15,0.11-0.023,0.237S12.04,39,12.214,39h29.572c0.174,0,0.11,0.15,0.237,0.023S42,38.96,42,38.786z
		 M17,24.643v1.286c0,0.174-0.207,0.54-0.334,0.667S16.245,27,16.071,27h-1.285c-0.175,0-0.396-0.277-0.523-0.404
		C14.135,26.469,14,26.103,14,25.929v-1.286c0-0.174,0.135-0.324,0.263-0.452C14.39,24.063,14.611,24,14.786,24h1.285
		c0.174,0,0.468,0.063,0.595,0.19C16.793,24.318,17,24.469,17,24.643z M17,29.786v1.285c0,0.175-0.207,0.468-0.334,0.595
		S16.245,32,16.071,32h-1.285c-0.175,0-0.396-0.207-0.523-0.334C14.135,31.539,14,31.246,14,31.071v-1.285
		c0-0.175,0.135-0.396,0.263-0.523C14.39,29.136,14.611,29,14.786,29h1.285c0.174,0,0.468,0.136,0.595,0.263S17,29.611,17,29.786z
		 M17,34.929v1.285c0,0.175-0.207,0.396-0.334,0.523C16.539,36.865,16.245,37,16.071,37h-1.285c-0.175,0-0.396-0.135-0.523-0.263
		C14.135,36.61,14,36.389,14,36.214v-1.285c0-0.174,0.135-0.468,0.263-0.595C14.39,34.207,14.611,34,14.786,34h1.285
		c0.174,0,0.468,0.207,0.595,0.334S17,34.755,17,34.929z M40,24.643v1.286c0,0.174-0.136,0.54-0.263,0.667S39.389,27,39.214,27
		H19.929c-0.175,0-0.468-0.277-0.595-0.404S19,26.103,19,25.929v-1.286c0-0.174,0.207-0.324,0.334-0.452
		c0.127-0.127,0.42-0.19,0.595-0.19h19.285c0.175,0,0.396,0.063,0.523,0.19C39.864,24.318,40,24.469,40,24.643z M40,29.786v1.285
		c0,0.175-0.136,0.468-0.263,0.595S39.389,32,39.214,32H19.929c-0.175,0-0.468-0.207-0.595-0.334S19,31.246,19,31.071v-1.285
		c0-0.175,0.207-0.396,0.334-0.523S19.754,29,19.929,29h19.285c0.175,0,0.396,0.136,0.523,0.263S40,29.611,40,29.786z M40,34.929
		v1.285c0,0.175-0.136,0.396-0.263,0.523C39.61,36.865,39.389,37,39.214,37H19.929c-0.175,0-0.468-0.135-0.595-0.263
		C19.207,36.61,19,36.389,19,36.214v-1.285c0-0.174,0.207-0.468,0.334-0.595S19.754,34,19.929,34h19.285
		c0.175,0,0.396,0.207,0.523,0.334S40,34.755,40,34.929z"/>
</g>
</svg>
