<?xml version="1.0" encoding="utf-8"?>
<!DOCTYPE svg PUBLIC "-//W3C//DTD SVG 1.1//EN" "http://www.w3.org/Graphics/SVG/1.1/DTD/svg11.dtd">
<svg version="1.1" id="Layer_1" xmlns="http://www.w3.org/2000/svg" xmlns:xlink="http://www.w3.org/1999/xlink" x="0px" y="0px"
	 width="100px" height="100px" viewBox="0 0 100 100" style="enable-background:new 0 0 100 100;" xml:space="preserve">
<path style="fill:#019BD4;" d="M100,94c0,3.313-2.687,6-6,6H6c-3.313,0-6-2.687-6-6V6c0-3.313,2.687-6,6-6h88c3.313,0,6,2.687,6,6
	V94z"/>
<g>
	<path style="fill:#FFFFFF;" d="M25,22.25v7.5c0,0.339-0.124,0.632-0.371,0.879C24.381,30.877,24.088,31,23.75,31h-7.5
		c-0.339,0-0.632-0.123-0.879-0.371C15.123,30.382,15,30.089,15,29.75v-7.5c0-0.338,0.123-0.631,0.371-0.879
		C15.618,21.124,15.911,21,16.25,21h7.5c0.338,0,0.631,0.124,0.879,0.371C24.876,21.619,25,21.912,25,22.25z M25,37.25v7.5
		c0,0.339-0.124,0.632-0.371,0.879C24.381,45.877,24.088,46,23.75,46h-7.5c-0.339,0-0.632-0.123-0.879-0.371
		C15.123,45.382,15,45.089,15,44.75v-7.5c0-0.338,0.123-0.631,0.371-0.879C15.618,36.124,15.911,36,16.25,36h7.5
		c0.338,0,0.631,0.124,0.879,0.371C24.876,36.619,25,36.912,25,37.25z M25,52.25v7.5c0,0.339-0.124,0.632-0.371,0.879
		C24.381,60.877,24.088,61,23.75,61h-7.5c-0.339,0-0.632-0.123-0.879-0.371C15.123,60.382,15,60.089,15,59.75v-7.5
		c0-0.338,0.123-0.631,0.371-0.879C15.618,51.124,15.911,51,16.25,51h7.5c0.338,0,0.631,0.124,0.879,0.371
		C24.876,51.619,25,51.912,25,52.25z M25,67.25v7.5c0,0.339-0.124,0.632-0.371,0.879C24.381,75.877,24.088,76,23.75,76h-7.5
		c-0.339,0-0.632-0.123-0.879-0.371C15.123,75.382,15,75.089,15,74.75v-7.5c0-0.338,0.123-0.631,0.371-0.879
		C15.618,66.124,15.911,66,16.25,66h7.5c0.338,0,0.631,0.124,0.879,0.371C24.876,66.619,25,66.912,25,67.25z M85,22.25v7.5
		c0,0.339-0.124,0.632-0.371,0.879C84.381,30.877,84.088,31,83.75,31h-52.5c-0.339,0-0.632-0.123-0.879-0.371
		C30.123,30.382,30,30.089,30,29.75v-7.5c0-0.338,0.123-0.631,0.371-0.879C30.618,21.124,30.911,21,31.25,21h52.5
		c0.338,0,0.631,0.124,0.879,0.371C84.876,21.619,85,21.912,85,22.25z M85,37.25v7.5c0,0.339-0.124,0.632-0.371,0.879
		C84.381,45.877,84.088,46,83.75,46h-52.5c-0.339,0-0.632-0.123-0.879-0.371C30.123,45.382,30,45.089,30,44.75v-7.5
		c0-0.338,0.123-0.631,0.371-0.879C30.618,36.124,30.911,36,31.25,36h52.5c0.338,0,0.631,0.124,0.879,0.371
		C84.876,36.619,85,36.912,85,37.25z M85,52.25v7.5c0,0.339-0.124,0.632-0.371,0.879C84.381,60.877,84.088,61,83.75,61h-52.5
		c-0.339,0-0.632-0.123-0.879-0.371C30.123,60.382,30,60.089,30,59.75v-7.5c0-0.338,0.123-0.631,0.371-0.879
		C30.618,51.124,30.911,51,31.25,51h52.5c0.338,0,0.631,0.124,0.879,0.371C84.876,51.619,85,51.912,85,52.25z M85,67.25v7.5
		c0,0.339-0.124,0.632-0.371,0.879C84.381,75.877,84.088,76,83.75,76h-52.5c-0.339,0-0.632-0.123-0.879-0.371
		C30.123,75.382,30,75.089,30,74.75v-7.5c0-0.338,0.123-0.631,0.371-0.879C30.618,66.124,30.911,66,31.25,66h52.5
		c0.338,0,0.631,0.124,0.879,0.371C84.876,66.619,85,66.912,85,67.25z"/>
</g>
</svg>
